<svg t="1730977671791" class="icon" viewBox="0 0 1024 1024" version="1.1" xmlns="http://www.w3.org/2000/svg" p-id="4268" width="40" height="40"><path d="M99.07 157.63l59.31-59.33c1 1 2.37 2.16 3.62 3.42q103.14 103.11 206.22 206.3a12.23 12.23 0 0 0 9.56 3.94q161.83-0.15 323.67 0a12.25 12.25 0 0 0 9.57-4q41.37-41.62 83-83c17-16.83 41.35-18.27 58.68-3.75 18.49 15.47 20.66 43.23 4.25 61-10.72 11.61-22.2 22.53-33.37 33.73q-26.45 26.52-53 52.95c-2.29 2.27-2.6 3.91-1 6.75a294.41 294.41 0 0 1 40.1 143c0.05 2 0.21 3.95 0.34 6.55h6.15c26 0 51.95-0.12 77.92 0 22.82 0.14 40.43 15.4 43.14 37a42.27 42.27 0 0 1-41.61 48c-26.64 0.33-53.28 0.09-79.92 0.1h-5.54c-0.61 9.76-1 19-1.81 28.3a281.59 281.59 0 0 1-19.6 81.77c-1.75 4.35-1.42 6.9 2 10.27q65.35 65 130.42 130.23c1.27 1.28 2.48 2.61 3.43 3.6l-59.36 59.35zM212.9 610.41h-5.71c-26.3 0-52.61 0.13-78.91 0-22.8-0.16-40.19-16-42.8-38.64-2.69-23.26 15.88-45.65 39.38-46.21 27.12-0.64 54.27-0.23 81.4-0.28h6.79c0.45-47.3 10.58-92 32-134.43 1.44 1.35 2.55 2.33 3.59 3.38q121.7 121.61 243.41 243.22c2.78 2.78 3.52 5.38 3.11 9.21-3.34 31.76-6.45 63.56-9.64 95.34l-10.6 105.78q-2.68 26.82-5.35 53.64c-0.11 1.14-0.26 2.28-0.48 4.26-61.07-8.91-113.87-34.39-160.32-76.28a35.67 35.67 0 0 1-3.35 4.69q-38.45 38.54-77 77c-19.65 19.47-50.25 17-65.71-5-11.27-16-10.38-37.55 2.78-52.15 8.12-9 17-17.39 25.56-26q30.51-30.57 61.13-61c2.38-2.37 2.94-4 1.12-7.15a293.68 293.68 0 0 1-40-142.5c-0.09-2.18-0.26-4.3-0.4-6.88z" p-id="4269" fill="#cdcdcd"></path><path d="M682.26 269.27H340.82c1.8-58.22 25.21-104.83 72.19-138.93 55.48-40.28 131.45-42.47 189.74-4.79 51.63 33.41 77.2 82 79.51 143.72zM553.86 905.75c-7.65-76.39-15.22-151.94-22.77-227.33l165.75 165.79c-41.44 32.83-88.97 53.52-142.98 61.54z" p-id="4270" fill="#cdcdcd"></path></svg>