<svg t="1743424277927" class="icon" fill="#CED0D6" viewBox="0 0 1024 1024" version="1.1" xmlns="http://www.w3.org/2000/svg" p-id="12016" width="16" height="16"><path d="M128 128h768a42.666667 42.666667 0 0 1 42.666667 42.666667v682.666666a42.666667 42.666667 0 0 1-42.666667 42.666667H128a42.666667 42.666667 0 0 1-42.666667-42.666667V170.666667a42.666667 42.666667 0 0 1 42.666667-42.666667z m42.666667 85.333333v597.333334h682.666666V213.333333H170.666667z m341.333333 426.666667h256v85.333333h-256v-85.333333z m-142.208-128L249.088 391.338667l60.373333-60.373334L490.453333 512l-180.992 181.034667-60.373333-60.373334L369.792 512z" p-id="12017"></path></svg>