<svg xmlns="http://www.w3.org/2000/svg" width="24" height="24" viewBox="0 0 800 800">
  <g transform="translate(-7.332419,812.409004) scale(0.103266,-0.103266)" fill="#72a96b" stroke="none">
    <path d="M4797 6020 c-141 -25 -266 -80 -381 -168 -80 -60 -814 -789 -968 -960 -65 -73 -132 -154 -149 -180 -45 -70 -86 -188 -99 -279 -14 -105 2 -298 36 -431 28 -111 103 -273 166 -357 58 -78 187 -215 202 -215 6 0 66 55 134 123 l122 122 -70 70 c-75 74 -150 176 -193 260 -76 152 -87 312 -30 435 16 36 52 94 78 130 27 36 229 246 449 466 487 488 572 556 764 605 90 23 143 24 236 4 182 -39 337 -160 428 -335 52 -102 72 -192 66 -302 -5 -80 -10 -99 -48 -174 -36 -74 -59 -103 -173 -218 -73 -73 -170 -164 -217 -203 -47 -39 -100 -87 -119 -106 l-33 -36 30 -73 c43 -103 55 -180 50 -303 l-5 -104 67 59 c142 125 526 528 601 629 183 246 248 469 203 689 -32 155 -92 291 -189 427 -148 208 -341 348 -560 406 -89 24 -314 34 -398 19z"/>
    <path d="M4802 5451 c-84 -25 -90 -34 -17 -29 33 3 95 1 139 -5 73 -9 80 -8 99 12 12 11 17 24 13 28 -16 17 -170 13 -234 -6z"/>
    <path d="M5114 5396 l-28 -23 41 -49 c44 -53 58 -89 69 -171 6 -51 7 -52 27 -38 37 26 83 19 126 -21 42 -37 81 -106 81 -142 0 -11 5 -24 12 -28 17 -11 3 159 -18 220 -9 28 -35 68 -60 94 -41 43 -45 44 -89 40 -39 -5 -46 -3 -43 11 2 10 20 20 46 26 41 10 42 12 25 27 -37 33 -118 78 -139 78 -13 0 -35 -11 -50 -24z"/>
    <path d="M4076 4371 c-99 -87 -182 -163 -184 -169 -3 -9 51 0 133 23 41 12 180 -138 231 -250 110 -240 79 -440 -101 -655 -125 -148 -755 -755 -885 -854 -77 -57 -206 -120 -278 -135 -125 -26 -257 -9 -367 46 -76 39 -194 164 -238 250 -92 187 -88 388 14 559 51 86 220 256 363 364 68 52 125 99 125 103 1 5 -9 23 -22 40 -55 75 -86 190 -94 350 -3 65 -10 116 -14 115 -18 -7 -357 -329 -500 -476 -172 -177 -229 -260 -279 -404 -72 -212 -64 -474 20 -684 87 -219 264 -421 461 -527 130 -70 283 -107 450 -107 123 0 192 13 306 56 174 66 210 98 934 816 163 161 321 327 352 368 101 137 158 280 178 444 25 197 -36 442 -156 628 -54 83 -225 258 -252 258 -10 -1 -99 -72 -197 -159z m-1874 -1157 c15 -15 14 -20 -7 -58 -29 -52 -62 -164 -70 -236 -3 -30 -1 -89 4 -130 5 -41 8 -76 6 -78 -5 -5 -53 148 -65 211 -13 66 -16 169 -5 218 8 37 30 90 78 189 l32 65 5 -83 c4 -57 11 -87 22 -98z m1058 -1029 c0 -7 -125 -68 -202 -99 -67 -26 -155 -34 -227 -20 -50 10 -36 21 36 29 50 5 75 13 97 32 18 15 35 22 45 17 40 -18 80 -14 156 14 84 32 95 35 95 27z"/>
    <path d="M3251 2800 c-58 -39 -92 -44 -189 -28 -77 13 -82 13 -82 -3 0 -33 20 -71 40 -76 11 -3 20 -9 20 -13 0 -10 -66 -54 -122 -81 -50 -24 -52 -34 -10 -50 26 -10 26 -11 8 -25 -11 -8 -33 -14 -50 -14 -23 0 -27 -3 -18 -12 21 -21 183 6 250 42 80 43 166 121 191 175 20 43 29 115 14 115 -5 0 -28 -14 -52 -30z"/>
    <path d="M2678 2663 c-16 -2 -28 -8 -28 -13 0 -10 127 -90 145 -90 7 0 21 3 29 6 13 5 14 9 5 20 -9 12 -7 20 11 39 13 14 22 27 19 29 -7 7 -152 14 -181 9z"/>
  </g>
</svg>
