<svg t="1732760026544" class="icon" viewBox="0 0 1170 1024" version="1.1" xmlns="http://www.w3.org/2000/svg" p-id="5103" width="16" height="16"><path d="M198.563284 461.792378a50.171055 50.171055 0 1 1 0 100.342109 50.171055 50.171055 0 0 1 0-100.342109m772.897529-361.363237a50.171055 50.171055 0 1 1 0 100.342109 50.171055 50.171055 0 0 1 0-100.342109m0 361.290101a50.171055 50.171055 0 1 1 0 100.415245 50.171055 50.171055 0 0 1 0-100.342109m0 361.290101a50.171055 50.171055 0 1 1 0 100.415245 50.171055 50.171055 0 0 1 0-100.342109M198.563284 662.549732c63.774285-0.073136 120.600684-40.297742 141.883158-100.415245h98.733125l187.592937 326.038719c12.725603 18.137641 31.887143 30.790108 53.60843 35.324518h149.196722a150.586299 150.586299 0 1 0 0-100.342109H705.027647L554.880162 562.134487h274.77063a150.586299 150.586299 0 1 0 0-100.342109H555.099569l150.659435-261.021128h115.042374a58.14284 58.14284 0 0 0 8.483735-0.731357 150.586299 150.586299 0 1 0 0-98.80626 58.14284 58.14284 0 0 0-8.483735-0.804492H700.420101c-24.86612 3.144833-48.488935 12.652467-68.528102 27.71841L441.154229 458.428138l-1.462713 3.36424H340.373306a150.513164 150.513164 0 1 0-141.810022 200.757354" fill="#72a96b" p-id="5104"></path></svg>