<svg t="1734536627639" class="icon" viewBox="0 0 1024 1024" version="1.1" xmlns="http://www.w3.org/2000/svg" p-id="53481" width="20" height="20"><path d="M520 852.8c0-11.2 9.6-20.8 20.8-20.8H632c27.2-27.2 41.6-64 41.6-102.4 0-38.4-14.4-73.6-40-100.8-24-25.6-56-40-89.6-43.2-28.8-60.8-88-96-156.8-96-41.6 0-84.8 11.2-116.8 38.4-28.8 25.6-48 57.6-57.6 94.4-28.8 3.2-56 16-76.8 36.8-24 24-36.8 54.4-36.8 88s12.8 64 35.2 88c22.4 22.4 52.8 36.8 84.8 38.4h320c-11.2-1.6-19.2-9.6-19.2-20.8z m-288-19.2c-24 0-48-9.6-64-27.2-17.6-17.6-27.2-38.4-27.2-62.4s9.6-44.8 27.2-60.8c17.6-17.6 41.6-27.2 65.6-27.2 6.4 0 11.2-4.8 12.8-9.6 4.8-32 20.8-62.4 46.4-83.2 25.6-20.8 59.2-33.6 92.8-33.6 57.6 0 108.8 36.8 131.2 86.4 1.6 4.8 6.4 6.4 11.2 8 28.8 1.6 54.4 9.6 75.2 30.4 20.8 20.8 32 44.8 32 73.6 0 59.2-49.6 107.2-112 107.2l-291.2-1.6z" fill="#cdcdcd" p-id="53482"></path><path d="M808 155.2H302.4c-20.8 0-36.8 16-36.8 36.8v251.2c0 11.2 9.6 20.8 20.8 20.8s20.8-9.6 20.8-20.8V196.8h496V832H540.8c-11.2 0-20.8 9.6-20.8 20.8 0 11.2 8 19.2 19.2 20.8h268.8c20.8 0 36.8-16 36.8-36.8V193.6c0-20.8-16-38.4-36.8-38.4z" fill="#cdcdcd" p-id="53483"></path><path d="M406.4 328h294.4c11.2 0 20.8-9.6 20.8-20.8s-9.6-20.8-20.8-20.8H406.4c-11.2 0-20.8 9.6-20.8 20.8s8 20.8 20.8 20.8zM406.4 444.8h294.4c11.2 0 20.8-9.6 20.8-20.8s-9.6-20.8-20.8-20.8H406.4c-11.2 0-20.8 9.6-20.8 20.8s8 20.8 20.8 20.8z" fill="#cdcdcd" p-id="53484"></path></svg>