<svg t="1735038184404" class="icon" viewBox="0 0 1024 1024" version="1.1" xmlns="http://www.w3.org/2000/svg" p-id="55348" width="14" height="14"><path d="M111.936 393.877333h320.021333V78.784H912v866.432H471.978667V1024H992V0H375.957333L32 338.730667V512h80v-118.122667h-0.064z m184.874667 260.010667a8.490667 8.490667 0 0 0-14.698667 6.208v71.68c-7.893333 0-15.253333 0-23.168-3.946667A282.453333 282.453333 0 0 1 50.986667 551.744a6.208 6.208 0 0 0-11.882667 0 274.496 274.496 0 0 0 7.914667 143.36 282.026667 282.026667 0 0 0 42.944 82.389333c7.808 10.346667 16.298667 20.16 25.429333 29.333334a277.568 277.568 0 0 0 132.821333 75.072h11.306667l23.168 3.946666v75.626667c0 2.261333 0 0 0 0a8.469333 8.469333 0 0 0 11.861333 6.186667l56.512-51.904 113.024-105.536-148.053333-138.837334-19.221333-17.493333z m571.968-464.426667h-404.693334v78.976h404.693334V189.482667z m0 163.178667h-404.693334v78.933333h404.693334v-78.933333z m0 163.157333h-404.693334v78.933334h404.693334v-78.933334z m0.32 163.157334h-204.970667v78.954666h204.970667v-78.933333z" fill="#72a96b" p-id="55349"></path></svg>