<!-- Copyright 2000-2023 JetBrains s.r.o. and contributors. Use of this source code is governed by the Apache 2.0 license. -->
<svg width="16" height="16" viewBox="0 0 16 16" fill="none" xmlns="http://www.w3.org/2000/svg">
<path d="M14.6496 10.1932C14.877 9.5033 15 8.76602 15 8C15 4.13401 11.866 1 8 1C4.13401 1 1 4.13401 1 8C1 11.866 4.13401 15 8 15C8.76602 15 9.5033 14.877 10.1932 14.6496C10.068 14.2895 10 13.9027 10 13.5C10 11.567 11.567 10 13.5 10C13.9027 10 14.2895 10.068 14.6496 10.1932Z" fill="#402929"/>
<path d="M10.0657 5.24573C9.25361 5.24573 8.636 5.6473 8.29593 6.31537C8.00368 5.64257 7.40552 5.24573 6.6071 5.24573C5.84915 5.24573 5.28147 5.60946 4.96189 6.24862V5.37188H4V10.7543H4.99869V7.59001C4.99869 6.68068 5.5138 6.10775 6.32852 6.10775C7.0749 6.10775 7.50591 6.61761 7.50591 7.43758V10.7543H8.49409V7.59001C8.49409 6.68068 9.01971 6.10775 9.82392 6.10775C10.5756 6.10775 11.0013 6.61761 11.0013 7.43758V10.7543H12V7.35874C12 6.07096 11.2168 5.24573 10.0657 5.24573Z" fill="#DB5C5C"/>
<path d="M16 13.5C16 14.8807 14.8807 16 13.5 16C12.1193 16 11 14.8807 11 13.5C11 12.1193 12.1193 11 13.5 11C14.8807 11 16 12.1193 16 13.5Z" fill="#57965C"/>
<path d="M10.0035 13.6574C9.37694 13.8792 8.70257 14 8 14C4.68629 14 2 11.3137 2 8C2 4.68629 4.68629 2 8 2C11.3137 2 14 4.68629 14 8C14 8.70257 13.8792 9.37694 13.6574 10.0035C14.0035 10.0188 14.3366 10.0844 14.6496 10.1932C14.877 9.5033 15 8.76602 15 8C15 4.13401 11.866 1 8 1C4.13401 1 1 4.13401 1 8C1 11.866 4.13401 15 8 15C8.76602 15 9.5033 14.877 10.1932 14.6496C10.0844 14.3366 10.0188 14.0035 10.0035 13.6574Z" fill="#DB5C5C"/>
</svg>
