<svg t="1731892263500" class="icon" viewBox="0 0 1024 1024" version="1.1" xmlns="http://www.w3.org/2000/svg" p-id="5488" width="16" height="16"><path d="M199.392 612.544V485.12a758.784 758.784 0 0 0 571.872 0v120.256h57.184V210.432c0-69.056-153.6-125.088-343.136-125.088S142.176 141.376 142.176 210.432v607.616c0.288 50.144 81.408 93.312 198.4 113.216v-44.064c-84.448-13.952-141.184-39.776-141.184-69.344v-136.096a464.48 464.48 0 0 0 141.184 44.32v-44.032c-84.448-14.112-141.184-39.936-141.184-69.504z m285.92-116.16c-157.888 0-285.92-36-285.92-80.416v-136.32a758.784 758.784 0 0 0 571.872 0v136.32c0 44.512-128.032 80.384-285.92 80.384z m0-366.368c157.888 0 285.92 36.032 285.92 80.416s-128 80.416-285.92 80.416-285.92-36.032-285.92-80.416 128.032-80.448 285.952-80.448z" fill="#72a96b" p-id="5489"></path><path d="M529.216 774.112a53.984 53.984 0 0 1 17.76 20.832 66.336 66.336 0 0 1 0 57.6 54.4 54.4 0 0 1-17.76 20.864 42.176 42.176 0 0 1-24.352 7.68h-105.088v-30.88h91.904a20.704 20.704 0 0 0 16.192-7.68 29.888 29.888 0 0 0 0-37.664 20.64 20.64 0 0 0-16.192-7.712h-50.848a41.6 41.6 0 0 1-24.096-7.552 53.408 53.408 0 0 1-17.408-20.544 65.184 65.184 0 0 1 0-56.352 53.568 53.568 0 0 1 17.408-20.416 41.408 41.408 0 0 1 24.096-7.552h102.912v30.528h-90.016a19.712 19.712 0 0 0-15.456 7.552 26.944 26.944 0 0 0-6.4 18.112 26.464 26.464 0 0 0 6.4 17.984 19.84 19.84 0 0 0 15.456 7.424h51.2a41.984 41.984 0 0 1 24.288 7.776z" fill="#72a96b" p-id="5490"></path><path d="M744.672 836.32a50.112 50.112 0 0 1-7.776 27.392l7.04 8.288-18.496 21.696-11.424-13.408a31.584 31.584 0 0 1-7.328 0.864h-84.576a33.312 33.312 0 0 1-19.2-5.984 41.952 41.952 0 0 1-13.888-16.288 49.824 49.824 0 0 1-5.088-22.4v-106.912a49.728 49.728 0 0 1 5.088-22.4 41.6 41.6 0 0 1 13.888-16.288 33.312 33.312 0 0 1 19.2-5.984h84.416a32.992 32.992 0 0 1 19.008 5.984 41.6 41.6 0 0 1 13.856 16.288 49.76 49.76 0 0 1 5.12 22.4z m-38.912-9.12v-88.768a24.064 24.064 0 0 0-5.728-16 17.76 17.76 0 0 0-13.984-6.72h-43.328a17.856 17.856 0 0 0-13.856 6.72 23.712 23.712 0 0 0-5.856 16v89.056a24.096 24.096 0 0 0 5.856 16.416 17.856 17.856 0 0 0 13.856 6.72h43.328a8.768 8.768 0 0 0 2.656-0.32l-11.936-13.984 18.528-21.408z" fill="#72a96b" p-id="5491"></path><path d="M902.912 881.12h-68.832a49.856 49.856 0 0 1-28.8-9.12 63.552 63.552 0 0 1-20.928-24.544 74.4 74.4 0 0 1-7.68-33.664v-129.024h39.168v129.024a38.4 38.4 0 0 0 9.152 25.792 27.872 27.872 0 0 0 22.016 10.72h55.936z" fill="#72a96b" p-id="5492"></path></svg>