<svg t="1756738560382" class="icon" viewBox="150 -200 1500 1500" version="1.1" xmlns="http://www.w3.org/2000/svg" p-id="2052" width="16" height="16"><path d="M593.92 315.392l-122.88 200.704-122.88-200.704C323.584 266.24 245.76 286.72 245.76 344.064V737.28h114.688v-192.512l65.536 106.496 8.192 8.192c24.576 28.672 73.728 24.576 90.112-8.192l65.536-106.496V737.28h114.688V344.064c-4.096-57.344-77.824-77.824-110.592-28.672zM757.76 512c0 122.88 102.4 225.28 229.376 225.28h57.344v-110.592h-57.344c-61.44 0-114.688-49.152-114.688-110.592 0-61.44 49.152-110.592 114.688-110.592h57.344V286.72h-57.344c-126.976 0-229.376 102.4-229.376 225.28zM1384.448 286.72h-143.36c-49.152 0-86.016 36.864-86.016 86.016V737.28H1269.76v-110.592h114.688c94.208 0 172.032-73.728 172.032-167.936C1556.48 360.448 1478.656 286.72 1384.448 286.72z m0 225.28H1269.76V401.408h114.688c32.768 0 57.344 24.576 57.344 57.344s-24.576 53.248-57.344 53.248z" fill="#cdcdcd" p-id="2053"></path></svg>