<svg t="1731906641905" class="icon" viewBox="0 0 1044 1024" version="1.1" xmlns="http://www.w3.org/2000/svg" p-id="14343" width="16" height="16"><path d="M1017.694863 838.717337a26.565947 26.565947 0 0 1-18.832963-7.779984l-75.379851-75.379851a26.659947 26.659947 0 0 1 37.712926-37.666925l75.37985 75.33285a26.659947 26.659947 0 0 1-18.879962 45.54091z" fill="#cdcdcd" p-id="14344"></path><path d="M1007.068884 1023.91797H37.989805a35.579929 35.579929 0 1 1-3.415993-71.063859h972.495072a35.579929 35.579929 0 0 1 3.414993 71.063859q-1.707997 0.095-3.414993 0zM817.976258 472.347064a135.674731 135.674731 0 1 0 135.674732 135.675731 135.674731 135.674731 0 0 0-135.674732-135.675731m0-50.141901a185.817632 185.817632 0 1 1-185.817631 185.817632 186.007631 186.007631 0 0 1 185.817631-185.817632z" fill="#cdcdcd" p-id="14345"></path><path d="M641.789608 765.803482H103.692674V85.389831h836.060343v300.049405a243.977516 243.977516 0 0 1 80.88284 49.336902V42.029917A40.607919 40.607919 0 0 0 981.640934 0H63.464754a40.607919 40.607919 0 0 0-39.042922 42.029917v769.836474A40.607919 40.607919 0 0 0 63.464754 853.898307h649.910712a264.281476 264.281476 0 0 1-71.585858-88.093825z" fill="#cdcdcd" p-id="14346"></path><path d="M679.076534 383.921239a55.45589 55.45589 0 0 1-78.415845 78.416844h-0.189999a53.130895 53.130895 0 0 1-13.187974-21.015958h-51.849897a18.642963 18.642963 0 0 1-12.903975-5.739989l-37.618925-39.515921-60.341881 167.173668a20.540959 20.540959 0 0 1-15.274969 12.523976 17.883965 17.883965 0 0 1-19.544962-15.654969l-29.553941-255.836493-32.116936 141.651719a18.500963 18.500963 0 0 1-5.501989 10.625979 18.026964 18.026964 0 0 1-25.52295-1.706997l-36.099928-41.224918-8.918983 17.029966a18.026964 18.026964 0 0 1-16.129968 10.626979h-44.259912a17.646965 17.646965 0 0 1-17.789965-17.456965v-0.19a18.073964 18.073964 0 0 1 17.647965-18.500963h33.349934l15.653969-31.214938a17.883965 17.883965 0 0 1 24.099952-7.732985l0.142 0.095a27.181946 27.181946 0 0 1 5.976988 4.269991l30.170941 34.392932 48.007904-210.722582a17.267966 17.267966 0 0 1 19.923961-14.041972l1.091998 0.236999a18.026964 18.026964 0 0 1 14.230972 15.27497l32.115936 284.300436 44.829911-123.008756a17.836965 17.836965 0 0 1 22.675955-11.099978h0.047a23.197954 23.197954 0 0 1 7.020986 4.268992l52.039897 55.029891h44.402912a56.831887 56.831887 0 0 1 13.187974-21.253958h0.189999a55.835889 55.835889 0 0 1 78.463845 0z" fill="#cdcdcd" p-id="14347"></path></svg>