<svg t="1733552931546" class="icon" viewBox="0 0 1024 1024" version="1.1" xmlns="http://www.w3.org/2000/svg" p-id="84539" width="16" height="16"><path d="M637.155556 739.555556v125.155555h108.088888c22.755556 0 45.511111-5.688889 56.888889-11.377778 17.066667-11.377778 28.444444-28.444444 28.444445-51.2s-5.688889-39.822222-22.755556-51.2c-11.377778-5.688889-28.444444-11.377778-62.577778-11.377777h-108.088888z m0-170.666667v113.777778H739.555556c28.444444 0 51.2-5.688889 62.577777-11.377778 11.377778-11.377778 17.066667-22.755556 17.066667-45.511111 0-17.066667-5.688889-34.133333-17.066667-39.822222-17.066667-17.066667-34.133333-17.066667-62.577777-17.066667h-102.4zM568.888889 512h187.733333c39.822222 0 73.955556 11.377778 96.711111 28.444444 22.755556 17.066667 34.133333 45.511111 34.133334 73.955556 0 22.755556-5.688889 39.822222-17.066667 56.888889-11.377778 17.066667-28.444444 22.755556-45.511111 34.133333 28.444444 5.688889 45.511111 17.066667 62.577778 34.133334 11.377778 17.066667 22.755556 39.822222 22.755555 62.577777 0 39.822222-11.377778 68.266667-39.822222 91.022223-22.755556 17.066667-56.888889 22.755556-102.4 22.755555H568.888889V512zM210.488889 364.088889H341.333333L278.755556 187.733333 210.488889 364.088889zM238.933333 113.777778h73.955556l153.6 403.911111H398.222222l-34.133333-96.711111h-170.666667l-39.822222 96.711111H85.333333L238.933333 113.777778zM398.222222 745.244444H256c-51.2 0-113.777778-56.888889-113.777778-113.777777v-56.888889h56.888889v56.888889c0 28.444444 39.822222 62.577778 56.888889 56.888889h130.844444l-51.2-51.2 39.822223-39.822223 119.466666 119.466667-5.688889 5.688889 5.688889 5.688889L375.466667 853.333333l-39.822223-39.822222L398.222222 745.244444z" fill="#bfbfbf" p-id="84540"></path></svg>