<svg t="1740923128991" class="icon" viewBox="0 0 1024 1024" version="1.1" xmlns="http://www.w3.org/2000/svg" p-id="47328" width="16" height="16"><path d="M736.803999 448.468035c3.25923-257.385045-208.512964-374.677425-224.807069-384.449999l0 0 0 0 0 0 0 0c-13.028735 6.516414-228.062206 123.803677-224.800929 384.449999-42.35669 29.322839-87.968517 78.19492-81.452103 162.903184 6.516414 84.708264 91.224678 143.353942 123.803677 140.097782 32.584116-3.25923 22.805402-26.066679 22.805402-26.066679l9.777691-45.61285c0 0 48.867988 71.679529 61.900815 71.679529l87.964424 0 0 0 0 0 0 0 0 0 87.968517 0c16.290011 0 61.901839-71.679529 61.901839-71.679529l9.776667 45.61285c0 0-9.776667 22.806425 22.805402 26.066679 32.578999 3.25616 117.287263-55.389518 123.8047-140.097782C824.771493 526.662955 779.160689 477.790874 736.803999 448.468035L736.803999 448.468035 736.803999 448.468035zM511.99693 445.210851c-6.511297 0-84.708264-3.261277-94.480838-94.485955 3.25616-87.967494 87.968517-94.480838 94.480838-97.741092 6.517437 0 91.229794 9.773598 94.485955 97.741092C596.709287 441.950597 518.514367 445.210851 511.99693 445.210851L511.99693 445.210851 511.99693 445.210851zM511.99693 445.210851" fill="#72a96b" p-id="47329"></path><path d="M463.128943 891.562688c0 9.772574-9.773598 19.549242-19.550265 19.549242l0 0c-9.772574 0-19.546172-9.776667-19.546172-19.549242l0-94.481861c0-9.776667 9.773598-19.549242 19.546172-19.549242l0 0c9.776667 0 19.550265 9.772574 19.550265 19.549242L463.128943 891.562688 463.128943 891.562688 463.128943 891.562688zM463.128943 891.562688" fill="#72a96b" p-id="47330"></path><path d="M534.804379 940.435793c0 9.772574-9.773598 19.546172-19.546172 19.546172l0 0c-9.772574 0-19.550265-9.773598-19.550265-19.546172L495.707942 800.338011c0-9.772574 9.777691-19.550265 19.550265-19.550265l0 0c9.772574 0 19.546172 9.777691 19.546172 19.550265L534.804379 940.435793 534.804379 940.435793 534.804379 940.435793zM534.804379 940.435793" fill="#72a96b" p-id="47331"></path><path d="M599.966471 868.756263c0 9.773598-9.772574 19.550265-19.546172 19.550265l0 0c-9.776667 0-19.549242-9.776667-19.549242-19.550265l0-68.418252c0-9.772574 9.772574-19.550265 19.549242-19.550265l0 0c9.773598 0 19.546172 9.777691 19.546172 19.550265L599.966471 868.756263 599.966471 868.756263 599.966471 868.756263zM599.966471 868.756263" fill="#72a96b" p-id="47332"></path></svg>