<svg t="1736587151000" class="icon" viewBox="0 0 1024 1024" version="1.1" xmlns="http://www.w3.org/2000/svg" p-id="38357" width="20" height="20"><path d="M57.6 946.432v-53.568a128.448 128.448 0 0 0 130.048 17.344 36.032 36.032 0 0 0 16.064-32 34.56 34.56 0 0 0-5.312-19.2 93.248 93.248 0 0 0-37.632-28.032 407.68 407.68 0 0 1-57.6-30.208 96 96 0 0 1-39.872-43.392 81.664 81.664 0 0 1 4.096-69.632A120.192 120.192 0 0 1 173.376 640a170.304 170.304 0 0 1 71.744 11.2v51.2a114.432 114.432 0 0 0-68.672-19.2 70.4 70.4 0 0 0-58.432 22.272 32 32 0 0 0-5.696 19.2 37.376 37.376 0 0 0 17.216 32 265.408 265.408 0 0 0 48.64 25.6c42.176 21.888 80.512 48.256 80.512 95.616 0 63.04-55.168 86.336-117.888 86.336a206.976 206.976 0 0 1-83.2-17.792z m387.648 17.728a146.048 146.048 0 0 1-149.44-158.336A150.08 150.08 0 0 1 450.496 640a145.344 145.344 0 0 1 146.816 158.208 163.456 163.456 0 0 1-59.264 137.344l90.944 65.664H549.824l-56-43.584a181.312 181.312 0 0 1-48.32 6.528zM448 685.696a88.704 88.704 0 0 0-69.952 32 128.384 128.384 0 0 0-27.136 84.544 130.88 130.88 0 0 0 26.24 84.096 86.72 86.72 0 0 0 68.672 32c65.152 0 97.152-49.472 97.152-115.2S513.536 685.696 448 685.696z m380.672 273.216h-173.824v-313.6h52.032V915.2h121.6z" fill="#cdcdcd" p-id="38358"></path><path d="M902.4 166.4L566.4 502.4h-45.056l-192-192 45.312-45.312L544 434.752l313.6-313.6z" fill="#cdcdcd" p-id="38359"></path></svg>