<svg t="1736594476708" class="icon" viewBox="0 0 1024 1024" version="1.1" xmlns="http://www.w3.org/2000/svg" p-id="43653" width="26" height="26"><path d="M540.11 806.416H250.09v-580.04h515.58v257.79c0 5.76 3.07 11.07 8.06 13.95a16.1 16.1 0 0 0 16.11 0 16.1 16.1 0 0 0 8.05-13.95v-273.9a16.116 16.116 0 0 0-16.11-16.11h-547.8a16.116 16.116 0 0 0-16.11 16.11v612.26a16.116 16.116 0 0 0 16.11 16.11h306.13c8.9 0 16.11-7.21 16.11-16.11 0-8.9-7.21-16.11-16.11-16.11z" fill="#cdcdcd" p-id="43654"></path><path d="M389.35 423.426c-2.98 2.66-6.45 4.81-10.29 6.38a31.272 31.272 0 0 1-11.81 2.33c-6.77 0-13.08-1.18-18.76-3.5a90.825 90.825 0 0 1-16.35-8.62c-3.38-2.18-6.63-3.39-9.65-3.6l-0.71-0.02c-2.28 0-5.64 0.8-8.7 4.7-2.07 2.87-3.79 7.66-0.22 14.24 2.57 4.76 7.74 9.08 15.87 13.23 5.13 2.47 11.01 4.58 17.47 6.27a72.195 72.195 0 0 0 18.17 2.32l1.91-0.03c8.57-0.18 16.61-1.68 23.9-4.47 7.33-2.81 13.71-6.76 18.98-11.76 5.3-5.03 9.5-11.1 12.35-17.83a56.58 56.58 0 0 0 4.39-22.28c0-7.21-1.02-13.66-3.04-19.15-1.98-5.44-5-10.44-8.9-14.73a61.704 61.704 0 0 0-13.87-11.16c-5.77-3.41-11.73-6.49-17.87-9.2-4.97-2.22-9.79-4.44-14.51-6.68-4.2-1.94-8.21-4.26-12-6.92-3.13-2.2-5.83-4.96-7.93-8.16-1.91-2.93-2.83-6.41-2.83-10.61 0-6.88 2.25-12.35 6.86-16.74 4.66-4.44 10.8-6.59 18.89-6.59l0.95-0.02c4.69 0.02 9.32 1.1 13.53 3.18 4.97 2.4 9.16 4.78 12.39 7.04 3.1 2.31 6.86 3.56 10.72 3.6 4.09 0 7.34-1.84 9.45-5.35 2.46-4.24 2.47-8.78 0.02-13.12-2.16-3.82-5.7-7.25-10.54-10.2-4.6-2.8-10.19-5.16-16.63-7.04-12.91-3.77-27.26-3.85-39.69 0.29a50.266 50.266 0 0 0-16.78 9.36c-4.93 4.2-8.94 9.38-11.76 15.21-2.96 6.01-4.46 12.78-4.46 20.11 0 8.01 1.32 14.91 3.9 20.55a42.609 42.609 0 0 0 11 14.63c4.57 3.95 10.05 7.48 16.29 10.51 6.07 2.95 12.74 5.86 19.78 8.59 3.64 1.49 7.39 3.31 11.13 5.38 3.56 1.97 6.84 4.4 9.76 7.22 2.82 2.74 5.12 5.91 6.83 9.42 1.67 3.41 2.51 7.31 2.51 11.6 0 4.3-0.9 8.33-2.65 12.01a29.972 29.972 0 0 1-7.1 9.61z m214.95-61.79c0-12.78-1.69-25.14-5.02-36.73-3.36-11.68-8.44-22.05-15.09-30.83a73.682 73.682 0 0 0-25.33-21.15c-10.12-5.2-22.12-7.83-35.63-7.83-13.69 0-25.8 2.64-36 7.83a73.433 73.433 0 0 0-25.47 21.16c-6.67 8.8-11.67 19.19-14.85 30.87-3.21 11.96-4.81 24.3-4.76 36.69 0 12.95 1.7 25.39 5.03 36.98 3.36 11.67 8.43 22.04 15.09 30.83a73.324 73.324 0 0 0 25.47 21.16c10.2 5.2 22.14 7.83 35.49 7.83 11 0 20.94-1.73 29.54-5.12a78.785 78.785 0 0 0 21.89-13.31l9.19 8.98c4.55 4.55 8.62 6.92 12.45 7.25 4.1 0.37 7.63-1.22 9.98-4.23 4.14-4.45 6.86-11.97-3.69-22.52l-11.17-11.18a99.868 99.868 0 0 0 9.72-26.22c2.13-10.01 3.19-20.22 3.16-30.46z m-54.38 20.97c-3.06 0.74-5.87 2.37-8.46 4.96-3.38 3.74-4.98 7.37-4.75 10.8 0.19 2.9 1.63 5.51 4.09 7.56l15.96 15.95a43.363 43.363 0 0 1-13.63 8.27c-5.88 2.17-12.57 3.28-19.9 3.28-9.53 0-17.79-1.98-24.56-5.89a49.585 49.585 0 0 1-16.83-15.85c-4.43-6.73-7.75-14.46-9.87-22.99-2.19-8.85-3.29-17.94-3.26-27.06 0-9.48 1.1-18.72 3.26-27.46 2.12-8.61 5.48-16.33 9.98-22.94a51.82 51.82 0 0 1 16.86-15.78c6.69-3.9 14.9-5.89 24.41-5.89 9.35 0 17.52 1.98 24.31 5.89a51.03 51.03 0 0 1 16.98 15.89c4.49 6.7 7.85 14.51 9.99 23.21 2.16 8.81 3.26 18.18 3.26 27.84 0 7.83-0.59 15.06-1.75 21.47a99.424 99.424 0 0 1-4 14.96l-11.72-11.91c-3.05-3.72-6.64-5.22-10.37-4.31z m100.13-114.93c-3.7 0-6.84 1.09-9.32 3.23-2.62 2.27-3.95 5.47-3.95 9.53v157.25c0 4.68 1.5 8.49 4.47 11.34 2.92 2.82 7.02 4.26 12.16 4.26h64.45c3.45 0 6.45-0.96 8.93-2.86 2.71-2.09 4.09-5.25 4.09-9.38 0-4.27-1.31-7.5-3.89-9.59-2.39-1.93-5.45-2.91-9.12-2.91H663.6v-148.1c-0.01-8.12-4.95-12.77-13.55-12.77zM552.41 554.576l93 254.46c3.88 10.33 18.08 11.62 23.25 1.29l73.62-134.33h43.92c7.75 0 12.92-5.17 12.92-12.92s-5.17-12.92-12.92-12.92h-51.67c-5.17 0-9.04 2.58-11.62 6.46l-63.29 117.54-94.29-257.04c-3.88-10.33-19.38-11.62-24.54-1.29l-59.42 134.33h-56.83c-7.75 0-12.92 5.17-12.92 12.92s5.17 12.92 12.92 12.92h64.58c5.17 0 9.04-2.58 11.62-7.75l51.67-113.67z" fill="#cdcdcd" p-id="43655"></path></svg>
