<svg t="1736351493586" class="icon" viewBox="0 0 1024 1024" version="1.1" xmlns="http://www.w3.org/2000/svg" p-id="12710" width="20" height="20" fill="#72a96b"><path d="M515.584 0.512L68.096 155.136v447.488c0 269.312 447.488 419.84 447.488 419.84s447.488-151.552 447.488-418.816V156.16L515.584 0.512z m380.928 610.304c0 154.112-253.44 283.648-379.392 332.8-126.464-48.64-379.392-177.152-379.392-332.8V207.36l379.392-128 379.392 128v403.456z m-11.776-1.024" p-id="12711"></path><path d="M208.384 516.608c19.968 16.896 42.496 25.6 68.096 25.6 14.336 0 25.088-2.56 32.256-7.68 7.168-5.12 10.752-11.776 10.752-19.968 0-7.168-3.072-13.312-8.704-19.456-5.632-6.144-20.992-14.336-45.568-25.088-38.4-16.896-57.856-41.984-57.856-74.24 0-24.064 8.704-42.496 26.112-55.808 17.408-13.312 40.448-19.968 69.632-19.968 24.064 0 44.544 3.072 60.928 9.728v51.2c-16.384-11.776-35.84-17.408-58.368-17.408-12.8 0-23.552 2.56-31.232 7.168-7.68 5.12-11.776 11.264-11.776 19.968 0 6.656 2.56 12.8 8.192 18.432 5.12 5.632 18.432 13.312 39.424 22.528 24.576 10.752 41.472 22.528 50.688 34.816 9.216 12.288 13.824 26.624 13.824 43.52 0 24.576-8.192 43.52-25.088 56.32-16.896 12.8-40.96 19.456-71.68 19.456-28.16 0-51.712-4.608-69.632-14.336v-54.784zM400.896 456.704c0-40.448 11.264-72.704 33.792-98.304 22.528-25.088 52.736-37.888 89.6-37.888 35.328 0 64 12.288 85.504 36.352 21.504 24.576 32.256 55.808 32.256 94.208 0 39.936-11.264 72.192-33.792 97.28-1.536 1.536-2.56 3.072-4.096 4.608l62.976 62.976H588.8l-32.768-34.816c-11.264 3.072-23.04 4.608-35.84 4.608-35.328 0-64.512-12.288-86.528-36.352-21.504-24.064-32.768-54.784-32.768-92.672z m55.296-3.072c0 25.088 5.632 45.568 17.408 61.44 11.776 15.872 27.648 23.552 47.616 23.552 20.48 0 36.864-7.68 48.128-22.528 11.264-15.36 17.408-35.84 17.408-61.44 0-26.624-5.632-47.616-16.896-63.488-11.264-15.36-27.136-23.04-47.104-23.04-20.48 0-36.864 8.192-48.64 24.064-11.776 15.36-17.92 35.84-17.92 61.44zM829.44 581.632h-145.408V324.608h52.736v211.968H829.44v45.056z" p-id="12712" fill="#72a96b"></path></svg>