<svg t="1735444926791" class="icon" viewBox="0 0 1024 1024" version="1.1" xmlns="http://www.w3.org/2000/svg" p-id="10381" width="12" height="12"><path d="M526.783825 5.989292c-103.517489 0-184.644241 29.373126-243.380255 89.455451C224.744342 154.180757 195.386573 233.884411 195.386573 335.963447h146.75813c0-61.433755 12.623585-109.061424 37.788849-142.570745 27.939791-40.635043 74.129006-60.16423 137.001215-60.164229 50.335648 0 90.899024 13.969896 118.915601 41.909686 26.516694 28.026815 40.563376 65.733759 40.563375 114.70262 0 36.355514-14.046681 69.931383-39.211945 102.079036l-23.726811 26.583242c-86.696281 76.852342-139.867884 134.236926-158.05588 173.377205-19.534306 36.345276-27.939791 81.101156-27.939791 132.86502v23.742168h149.619681v-23.742168c0-33.580988 6.992626-64.285067 22.37538-92.306763 12.54168-25.19086 32.168129-50.330529 58.679704-72.721267 65.713283-57.389703 104.930348-93.750336 117.472028-109.07678 35.014322-44.760999 53.192079-102.073916 53.19208-170.577084 0-83.896159-28.026815-151.058134-83.911517-200.026995-55.951249-50.315172-128.672516-74.047101-218.122847-74.047101z m-25.165264 818.014427c-28.00122 0-53.181841 8.37989-72.787815 27.924434-19.518949 18.259662-29.286102 41.976234-29.286102 71.369837 0 28.00122 9.772272 51.743387 29.286102 71.354479 19.611092 19.524068 44.781475 29.347531 72.787815 29.347531 27.950029 0 53.094817-9.823463 72.716147-28.00122 19.518949-19.605973 30.714318-43.337902 30.714318-72.705909 0-29.393602-9.767153-53.110175-29.373126-71.369837-19.595735-19.534306-44.766118-27.919315-74.057339-27.919315z" fill="#cdcdcd" p-id="10382"></path></svg>