<svg t="1734447874117" class="icon" viewBox="0 0 1892 1024" version="1.1" xmlns="http://www.w3.org/2000/svg" p-id="28018" width="18" height="18"><path d="M75.155963 699.889908V46.972477h117.431193v657.614679c0 150.311927 56.366972 197.284404 126.825688 197.284404 75.155963 0 131.522936-46.972477 131.522936-197.284404V46.972477H563.669725v652.917431c0 230.165138-112.733945 305.321101-248.954129 305.321101-131.522936 0-239.559633-75.155963-239.559633-305.321101zM1113.247706 991.119266l-169.100917-399.266055H854.899083v399.266055h-122.128441V46.972477H939.449541c164.40367 0 281.834862 70.458716 281.834863 263.045872 0 136.220183-65.761468 225.46789-164.40367 258.348623l183.19266 418.055046h-126.825688z m-192.587156-497.908257c117.431193 0 183.192661-61.06422 183.192661-183.19266 0-126.825688-65.761468-169.100917-183.192661-169.100918h-65.761467v352.293578h65.761467zM1409.174312 46.972477h117.431193v840.80734h333.504587v103.339449H1409.174312V46.972477z" p-id="28019" fill="#72a96b"></path></svg>